<svg id="Capa_1" data-name="Capa 1" xmlns="http://www.w3.org/2000/svg" viewBox="0 0 711.5 380.33"><defs><style>.cls-1,.cls-2{fill:none;stroke:#000;stroke-miterlimit:10;}.cls-2{stroke-dasharray:5 5;}</style></defs><title>CNN</title><rect class="cls-1" x="61.5" y="0.5" width="109.5" height="109.5"/><line class="cls-1" x1="61.5" y1="91.75" x2="171" y2="91.75"/><line class="cls-1" x1="61.5" y1="73.5" x2="171" y2="73.5"/><line class="cls-1" x1="61.5" y1="55.25" x2="171" y2="55.25"/><line class="cls-1" x1="61.5" y1="37" x2="171" y2="37"/><line class="cls-1" x1="61.5" y1="18.75" x2="171" y2="18.75"/><line class="cls-1" x1="152.75" y1="0.5" x2="152.75" y2="110"/><line class="cls-1" x1="134.5" y1="0.5" x2="134.5" y2="110"/><line class="cls-1" x1="116.25" y1="0.5" x2="116.25" y2="110"/><line class="cls-1" x1="98" y1="0.5" x2="98" y2="110"/><line class="cls-1" x1="79.75" y1="0.5" x2="79.75" y2="110"/><rect class="cls-1" x="302.5" y="0.5" width="109.5" height="109.5"/><line class="cls-1" x1="302.5" y1="91.75" x2="412" y2="91.75"/><line class="cls-1" x1="302.5" y1="73.5" x2="412" y2="73.5"/><line class="cls-1" x1="302.5" y1="55.25" x2="412" y2="55.25"/><line class="cls-1" x1="302.5" y1="37" x2="412" y2="37"/><line class="cls-1" x1="302.5" y1="18.75" x2="412" y2="18.75"/><line class="cls-1" x1="393.75" y1="0.5" x2="393.75" y2="110"/><line class="cls-1" x1="375.5" y1="0.5" x2="375.5" y2="110"/><line class="cls-1" x1="357.25" y1="0.5" x2="357.25" y2="110"/><line class="cls-1" x1="339" y1="0.5" x2="339" y2="110"/><line class="cls-1" x1="320.75" y1="0.5" x2="320.75" y2="110"/><line class="cls-2" x1="61" y1="110" x2="2" y2="162"/><line class="cls-2" x1="171" y1="110" x2="230" y2="162"/><line class="cls-2" x1="302" y1="110" x2="243" y2="162"/><line class="cls-2" x1="412" y1="110" x2="471" y2="162"/><rect class="cls-1" x="539.5" y="0.5" width="109.5" height="109.5"/><line class="cls-1" x1="539.5" y1="91.75" x2="649" y2="91.75"/><line class="cls-1" x1="539.5" y1="73.5" x2="649" y2="73.5"/><line class="cls-1" x1="539.5" y1="55.25" x2="649" y2="55.25"/><line class="cls-1" x1="539.5" y1="37" x2="649" y2="37"/><line class="cls-1" x1="539.5" y1="18.75" x2="649" y2="18.75"/><line class="cls-1" x1="630.75" y1="0.5" x2="630.75" y2="110"/><line class="cls-1" x1="612.5" y1="0.5" x2="612.5" y2="110"/><line class="cls-1" x1="594.25" y1="0.5" x2="594.25" y2="110"/><line class="cls-1" x1="576" y1="0.5" x2="576" y2="110"/><line class="cls-1" x1="557.75" y1="0.5" x2="557.75" y2="110"/><line class="cls-2" x1="539" y1="110" x2="480" y2="162"/><line class="cls-2" x1="649" y1="110" x2="708" y2="162"/><circle class="cls-1" cx="10.894" cy="185.436" r="10.394"/><circle class="cls-1" cx="40.853" cy="185.436" r="10.394"/><circle class="cls-1" cx="70.812" cy="185.436" r="10.394"/><circle class="cls-1" cx="100.771" cy="185.436" r="10.394"/><circle class="cls-1" cx="130.729" cy="185.436" r="10.394"/><circle class="cls-1" cx="160.688" cy="185.436" r="10.394"/><circle class="cls-1" cx="190.647" cy="185.436" r="10.394"/><circle class="cls-1" cx="220.606" cy="185.436" r="10.394"/><ellipse class="cls-1" cx="266.894" cy="369.665" rx="10.394" ry="10.165"/><ellipse class="cls-1" cx="236.894" cy="369.665" rx="10.394" ry="10.165"/><circle class="cls-1" cx="296.853" cy="369.436" r="10.394"/><circle class="cls-1" cx="326.812" cy="369.436" r="10.394"/><circle class="cls-1" cx="356.771" cy="369.436" r="10.394"/><circle class="cls-1" cx="386.729" cy="369.436" r="10.394"/><circle class="cls-1" cx="416.688" cy="369.436" r="10.394"/><circle class="cls-1" cx="446.647" cy="369.436" r="10.394"/><circle class="cls-1" cx="476.606" cy="369.436" r="10.394"/><circle class="cls-1" cx="250.894" cy="185.436" r="10.394"/><circle class="cls-1" cx="280.853" cy="185.436" r="10.394"/><circle class="cls-1" cx="310.812" cy="185.436" r="10.394"/><circle class="cls-1" cx="340.771" cy="185.436" r="10.394"/><circle class="cls-1" cx="370.729" cy="185.436" r="10.394"/><circle class="cls-1" cx="400.688" cy="185.436" r="10.394"/><circle class="cls-1" cx="430.647" cy="185.436" r="10.394"/><circle class="cls-1" cx="460.606" cy="185.436" r="10.394"/><circle class="cls-1" cx="490.894" cy="185.436" r="10.394"/><circle class="cls-1" cx="520.853" cy="185.436" r="10.394"/><circle class="cls-1" cx="550.812" cy="185.436" r="10.394"/><circle class="cls-1" cx="580.771" cy="185.436" r="10.394"/><circle class="cls-1" cx="610.729" cy="185.436" r="10.394"/><circle class="cls-1" cx="640.688" cy="185.436" r="10.394"/><circle class="cls-1" cx="670.647" cy="185.436" r="10.394"/><circle class="cls-1" cx="700.606" cy="185.436" r="10.394"/><line class="cls-1" x1="476.5" y1="358.5" x2="700.5" y2="195.5"/><line class="cls-1" x1="476.5" y1="358.5" x2="670.5" y2="195.5"/><line class="cls-1" x1="476.5" y1="358.5" x2="640.5" y2="195.5"/><line class="cls-1" x1="476.5" y1="358.5" x2="610.5" y2="195.5"/><line class="cls-1" x1="476.5" y1="358.5" x2="580.5" y2="195.5"/><line class="cls-1" x1="476.5" y1="358.5" x2="550.5" y2="195.5"/><line class="cls-1" x1="476.5" y1="358.5" x2="520.5" y2="195.5"/><line class="cls-1" x1="476.5" y1="358.5" x2="490.5" y2="195.5"/><line class="cls-1" x1="476.5" y1="358.5" x2="252.5" y2="195.5"/><line class="cls-1" x1="476.5" y1="358.5" x2="220.5" y2="195.5"/><line class="cls-1" x1="476.5" y1="358.5" x2="190.5" y2="195.5"/><line class="cls-1" x1="476.5" y1="358.5" x2="163.5" y2="195.5"/><line class="cls-1" x1="476.589" y1="358.542" x2="130.5" y2="195.5"/><line class="cls-1" x1="476.594" y1="358.529" x2="100.5" y2="195.5"/><line class="cls-1" x1="476.597" y1="358.515" x2="70.5" y2="195.5"/><line class="cls-1" x1="476.599" y1="358.502" x2="40.5" y2="195.5"/><line class="cls-1" x1="476.598" y1="358.488" x2="13.5" y2="195.5"/><line class="cls-1" x1="476.5" y1="358.5" x2="282.5" y2="195.5"/><line class="cls-1" x1="476.5" y1="358.5" x2="312.5" y2="195.5"/><line class="cls-1" x1="476.5" y1="358.5" x2="342.5" y2="195.5"/><line class="cls-1" x1="476.5" y1="358.5" x2="372.5" y2="195.5"/><line class="cls-1" x1="476.5" y1="358.5" x2="402.5" y2="195.5"/><line class="cls-1" x1="476.5" y1="358.5" x2="432.5" y2="195.5"/><line class="cls-1" x1="476.5" y1="358.5" x2="462.5" y2="195.5"/><line class="cls-1" x1="446.5" y1="358.5" x2="670.5" y2="195.5"/><line class="cls-1" x1="446.5" y1="358.5" x2="640.5" y2="195.5"/><line class="cls-1" x1="446.5" y1="358.5" x2="610.5" y2="195.5"/><line class="cls-1" x1="446.5" y1="358.5" x2="580.5" y2="195.5"/><line class="cls-1" x1="446.5" y1="358.5" x2="550.5" y2="195.5"/><line class="cls-1" x1="446.5" y1="358.5" x2="520.5" y2="195.5"/><line class="cls-1" x1="446.5" y1="358.5" x2="490.5" y2="195.5"/><line class="cls-1" x1="446.5" y1="358.5" x2="460.5" y2="195.5"/><line class="cls-1" x1="446.5" y1="358.5" x2="222.5" y2="195.5"/><line class="cls-1" x1="446.5" y1="358.5" x2="190.5" y2="195.5"/><line class="cls-1" x1="446.5" y1="358.5" x2="160.5" y2="195.5"/><line class="cls-1" x1="446.5" y1="358.5" x2="133.5" y2="195.5"/><line class="cls-1" x1="446.589" y1="358.542" x2="100.5" y2="195.5"/><line class="cls-1" x1="446.594" y1="358.529" x2="70.5" y2="195.5"/><line class="cls-1" x1="446.597" y1="358.515" x2="40.5" y2="195.5"/><line class="cls-1" x1="446.599" y1="358.502" x2="10.5" y2="195.5"/><line class="cls-1" x1="446.5" y1="358.5" x2="252.5" y2="195.5"/><line class="cls-1" x1="446.5" y1="358.5" x2="282.5" y2="195.5"/><line class="cls-1" x1="446.5" y1="358.5" x2="312.5" y2="195.5"/><line class="cls-1" x1="446.5" y1="358.5" x2="342.5" y2="195.5"/><line class="cls-1" x1="446.5" y1="358.5" x2="372.5" y2="195.5"/><line class="cls-1" x1="446.5" y1="358.5" x2="402.5" y2="195.5"/><line class="cls-1" x1="446.5" y1="358.5" x2="432.5" y2="195.5"/><line class="cls-1" x1="416.5" y1="358.5" x2="640.5" y2="195.5"/><line class="cls-1" x1="416.5" y1="358.5" x2="610.5" y2="195.5"/><line class="cls-1" x1="416.5" y1="358.5" x2="580.5" y2="195.5"/><line class="cls-1" x1="416.5" y1="358.5" x2="550.5" y2="195.5"/><line class="cls-1" x1="416.5" y1="358.5" x2="520.5" y2="195.5"/><line class="cls-1" x1="416.5" y1="358.5" x2="490.5" y2="195.5"/><line class="cls-1" x1="416.5" y1="358.5" x2="460.5" y2="195.5"/><line class="cls-1" x1="416.5" y1="358.5" x2="430.5" y2="195.5"/><line class="cls-1" x1="416.5" y1="358.5" x2="192.5" y2="195.5"/><line class="cls-1" x1="416.5" y1="358.5" x2="160.5" y2="195.5"/><line class="cls-1" x1="416.5" y1="358.5" x2="130.5" y2="195.5"/><line class="cls-1" x1="416.5" y1="358.5" x2="103.5" y2="195.5"/><line class="cls-1" x1="416.589" y1="358.542" x2="70.5" y2="195.5"/><line class="cls-1" x1="416.594" y1="358.529" x2="40.5" y2="195.5"/><line class="cls-1" x1="416.597" y1="358.515" x2="10.5" y2="195.5"/><line class="cls-1" x1="416.5" y1="358.5" x2="222.5" y2="195.5"/><line class="cls-1" x1="416.5" y1="358.5" x2="252.5" y2="195.5"/><line class="cls-1" x1="416.5" y1="358.5" x2="282.5" y2="195.5"/><line class="cls-1" x1="416.5" y1="358.5" x2="312.5" y2="195.5"/><line class="cls-1" x1="416.5" y1="358.5" x2="342.5" y2="195.5"/><line class="cls-1" x1="416.5" y1="358.5" x2="372.5" y2="195.5"/><line class="cls-1" x1="416.5" y1="358.5" x2="402.5" y2="195.5"/><line class="cls-1" x1="386.5" y1="358.5" x2="610.5" y2="195.5"/><line class="cls-1" x1="386.5" y1="358.5" x2="580.5" y2="195.5"/><line class="cls-1" x1="386.5" y1="358.5" x2="550.5" y2="195.5"/><line class="cls-1" x1="386.5" y1="358.5" x2="520.5" y2="195.5"/><line class="cls-1" x1="386.5" y1="358.5" x2="490.5" y2="195.5"/><line class="cls-1" x1="386.5" y1="358.5" x2="460.5" y2="195.5"/><line class="cls-1" x1="386.5" y1="358.5" x2="430.5" y2="195.5"/><line class="cls-1" x1="386.5" y1="358.5" x2="400.5" y2="195.5"/><line class="cls-1" x1="386.5" y1="358.5" x2="162.5" y2="195.5"/><line class="cls-1" x1="386.5" y1="358.5" x2="130.5" y2="195.5"/><line class="cls-1" x1="386.5" y1="358.5" x2="100.5" y2="195.5"/><line class="cls-1" x1="386.5" y1="358.5" x2="73.5" y2="195.5"/><line class="cls-1" x1="386.589" y1="358.542" x2="40.5" y2="195.5"/><line class="cls-1" x1="386.594" y1="358.529" x2="10.5" y2="195.5"/><line class="cls-1" x1="386.5" y1="358.5" x2="192.5" y2="195.5"/><line class="cls-1" x1="386.5" y1="358.5" x2="222.5" y2="195.5"/><line class="cls-1" x1="386.5" y1="358.5" x2="252.5" y2="195.5"/><line class="cls-1" x1="386.5" y1="358.5" x2="282.5" y2="195.5"/><line class="cls-1" x1="386.5" y1="358.5" x2="312.5" y2="195.5"/><line class="cls-1" x1="386.5" y1="358.5" x2="342.5" y2="195.5"/><line class="cls-1" x1="386.5" y1="358.5" x2="372.5" y2="195.5"/><line class="cls-1" x1="356.5" y1="359.5" x2="580.5" y2="196.5"/><line class="cls-1" x1="356.5" y1="359.5" x2="550.5" y2="196.5"/><line class="cls-1" x1="356.5" y1="359.5" x2="520.5" y2="196.5"/><line class="cls-1" x1="356.5" y1="359.5" x2="490.5" y2="196.5"/><line class="cls-1" x1="356.5" y1="359.5" x2="460.5" y2="196.5"/><line class="cls-1" x1="356.5" y1="359.5" x2="430.5" y2="196.5"/><line class="cls-1" x1="356.5" y1="359.5" x2="400.5" y2="196.5"/><line class="cls-1" x1="356.5" y1="359.5" x2="370.5" y2="196.5"/><line class="cls-1" x1="356.5" y1="359.5" x2="132.5" y2="196.5"/><line class="cls-1" x1="356.5" y1="359.5" x2="100.5" y2="196.5"/><line class="cls-1" x1="356.5" y1="359.5" x2="70.5" y2="196.5"/><line class="cls-1" x1="356.5" y1="359.5" x2="43.5" y2="196.5"/><line class="cls-1" x1="356.589" y1="359.542" x2="10.5" y2="196.5"/><line class="cls-1" x1="356.5" y1="359.5" x2="162.5" y2="196.5"/><line class="cls-1" x1="356.5" y1="359.5" x2="192.5" y2="196.5"/><line class="cls-1" x1="356.5" y1="359.5" x2="222.5" y2="196.5"/><line class="cls-1" x1="356.5" y1="359.5" x2="252.5" y2="196.5"/><line class="cls-1" x1="356.5" y1="359.5" x2="282.5" y2="196.5"/><line class="cls-1" x1="356.5" y1="359.5" x2="312.5" y2="196.5"/><line class="cls-1" x1="356.5" y1="359.5" x2="342.5" y2="196.5"/><line class="cls-1" x1="326.5" y1="359.5" x2="550.5" y2="196.5"/><line class="cls-1" x1="326.5" y1="359.5" x2="520.5" y2="196.5"/><line class="cls-1" x1="326.5" y1="359.5" x2="490.5" y2="196.5"/><line class="cls-1" x1="326.5" y1="359.5" x2="460.5" y2="196.5"/><line class="cls-1" x1="326.5" y1="359.5" x2="430.5" y2="196.5"/><line class="cls-1" x1="326.5" y1="359.5" x2="400.5" y2="196.5"/><line class="cls-1" x1="326.5" y1="359.5" x2="370.5" y2="196.5"/><line class="cls-1" x1="326.5" y1="359.5" x2="340.5" y2="196.5"/><line class="cls-1" x1="326.5" y1="359.5" x2="102.5" y2="196.5"/><line class="cls-1" x1="326.5" y1="359.5" x2="70.5" y2="196.5"/><line class="cls-1" x1="326.5" y1="359.5" x2="40.5" y2="196.5"/><line class="cls-1" x1="326.5" y1="359.5" x2="13.5" y2="196.5"/><line class="cls-1" x1="326.5" y1="359.5" x2="132.5" y2="196.5"/><line class="cls-1" x1="326.5" y1="359.5" x2="162.5" y2="196.5"/><line class="cls-1" x1="326.5" y1="359.5" x2="192.5" y2="196.5"/><line class="cls-1" x1="326.5" y1="359.5" x2="222.5" y2="196.5"/><line class="cls-1" x1="326.5" y1="359.5" x2="252.5" y2="196.5"/><line class="cls-1" x1="326.5" y1="359.5" x2="282.5" y2="196.5"/><line class="cls-1" x1="326.5" y1="359.5" x2="312.5" y2="196.5"/><line class="cls-1" x1="296.5" y1="359.5" x2="520.5" y2="196.5"/><line class="cls-1" x1="296.5" y1="359.5" x2="490.5" y2="196.5"/><line class="cls-1" x1="296.5" y1="359.5" x2="460.5" y2="196.5"/><line class="cls-1" x1="296.5" y1="359.5" x2="430.5" y2="196.5"/><line class="cls-1" x1="296.5" y1="359.5" x2="400.5" y2="196.5"/><line class="cls-1" x1="296.5" y1="359.5" x2="370.5" y2="196.5"/><line class="cls-1" x1="296.5" y1="359.5" x2="340.5" y2="196.5"/><line class="cls-1" x1="296.5" y1="359.5" x2="310.5" y2="196.5"/><line class="cls-1" x1="296.5" y1="359.5" x2="72.5" y2="196.5"/><line class="cls-1" x1="296.5" y1="359.5" x2="40.5" y2="196.5"/><line class="cls-1" x1="296.5" y1="359.5" x2="10.5" y2="196.5"/><line class="cls-1" x1="296.5" y1="359.5" x2="102.5" y2="196.5"/><line class="cls-1" x1="296.5" y1="359.5" x2="132.5" y2="196.5"/><line class="cls-1" x1="296.5" y1="359.5" x2="162.5" y2="196.5"/><line class="cls-1" x1="296.5" y1="359.5" x2="192.5" y2="196.5"/><line class="cls-1" x1="296.5" y1="359.5" x2="222.5" y2="196.5"/><line class="cls-1" x1="296.5" y1="359.5" x2="252.5" y2="196.5"/><line class="cls-1" x1="296.5" y1="359.5" x2="282.5" y2="196.5"/><line class="cls-1" x1="266.5" y1="358.5" x2="490.5" y2="195.5"/><line class="cls-1" x1="266.5" y1="358.5" x2="460.5" y2="195.5"/><line class="cls-1" x1="266.5" y1="358.5" x2="430.5" y2="195.5"/><line class="cls-1" x1="266.5" y1="358.5" x2="400.5" y2="195.5"/><line class="cls-1" x1="266.5" y1="358.5" x2="370.5" y2="195.5"/><line class="cls-1" x1="266.5" y1="358.5" x2="340.5" y2="195.5"/><line class="cls-1" x1="266.5" y1="358.5" x2="310.5" y2="195.5"/><line class="cls-1" x1="266.5" y1="358.5" x2="280.5" y2="195.5"/><line class="cls-1" x1="266.5" y1="358.5" x2="42.5" y2="195.5"/><line class="cls-1" x1="266.5" y1="358.5" x2="10.5" y2="195.5"/><line class="cls-1" x1="266.5" y1="358.5" x2="72.5" y2="195.5"/><line class="cls-1" x1="266.5" y1="358.5" x2="102.5" y2="195.5"/><line class="cls-1" x1="266.5" y1="358.5" x2="132.5" y2="195.5"/><line class="cls-1" x1="266.5" y1="358.5" x2="162.5" y2="195.5"/><line class="cls-1" x1="266.5" y1="358.5" x2="192.5" y2="195.5"/><line class="cls-1" x1="266.5" y1="358.5" x2="222.5" y2="195.5"/><line class="cls-1" x1="266.5" y1="358.5" x2="252.5" y2="195.5"/><line class="cls-1" x1="237.5" y1="358.5" x2="13.5" y2="195.5"/><line class="cls-1" x1="237.5" y1="358.5" x2="43.5" y2="195.5"/><line class="cls-1" x1="237.5" y1="358.5" x2="73.5" y2="195.5"/><line class="cls-1" x1="237.5" y1="358.5" x2="103.5" y2="195.5"/><line class="cls-1" x1="237.5" y1="358.5" x2="133.5" y2="195.5"/><line class="cls-1" x1="237.5" y1="358.5" x2="163.5" y2="195.5"/><line class="cls-1" x1="237.5" y1="358.5" x2="193.5" y2="195.5"/><line class="cls-1" x1="237.5" y1="358.5" x2="223.5" y2="195.5"/><line class="cls-1" x1="237.5" y1="358.5" x2="461.5" y2="195.5"/><line class="cls-1" x1="237.5" y1="358.5" x2="493.5" y2="195.5"/><line class="cls-1" x1="237.5" y1="358.5" x2="523.5" y2="195.5"/><line class="cls-1" x1="237.5" y1="358.5" x2="550.5" y2="195.5"/><line class="cls-1" x1="237.411" y1="358.542" x2="583.5" y2="195.5"/><line class="cls-1" x1="237.406" y1="358.529" x2="613.5" y2="195.5"/><line class="cls-1" x1="237.403" y1="358.515" x2="643.5" y2="195.5"/><line class="cls-1" x1="237.401" y1="358.502" x2="673.5" y2="195.5"/><line class="cls-1" x1="237.402" y1="358.488" x2="700.5" y2="195.5"/><line class="cls-1" x1="237.5" y1="358.5" x2="431.5" y2="195.5"/><line class="cls-1" x1="237.5" y1="358.5" x2="401.5" y2="195.5"/><line class="cls-1" x1="237.5" y1="358.5" x2="371.5" y2="195.5"/><line class="cls-1" x1="237.5" y1="358.5" x2="341.5" y2="195.5"/><line class="cls-1" x1="237.5" y1="358.5" x2="311.5" y2="195.5"/><line class="cls-1" x1="237.5" y1="358.5" x2="281.5" y2="195.5"/><line class="cls-1" x1="237.5" y1="358.5" x2="251.5" y2="195.5"/><line class="cls-1" x1="266.5" y1="358.5" x2="522.5" y2="195.5"/><line class="cls-1" x1="266.5" y1="358.5" x2="552.5" y2="195.5"/><line class="cls-1" x1="266.5" y1="358.5" x2="579.5" y2="195.5"/><line class="cls-1" x1="266.411" y1="358.542" x2="612.5" y2="195.5"/><line class="cls-1" x1="266.406" y1="358.529" x2="642.5" y2="195.5"/><line class="cls-1" x1="266.403" y1="358.515" x2="672.5" y2="195.5"/><line class="cls-1" x1="266.401" y1="358.502" x2="702.5" y2="195.5"/><line class="cls-1" x1="297.5" y1="358.5" x2="553.5" y2="195.5"/><line class="cls-1" x1="297.5" y1="358.5" x2="583.5" y2="195.5"/><line class="cls-1" x1="297.5" y1="358.5" x2="610.5" y2="195.5"/><line class="cls-1" x1="297.411" y1="358.542" x2="643.5" y2="195.5"/><line class="cls-1" x1="297.406" y1="358.529" x2="673.5" y2="195.5"/><line class="cls-1" x1="297.403" y1="358.515" x2="703.5" y2="195.5"/><line class="cls-1" x1="326.5" y1="358.5" x2="582.5" y2="195.5"/><line class="cls-1" x1="326.5" y1="358.5" x2="612.5" y2="195.5"/><line class="cls-1" x1="326.5" y1="358.5" x2="639.5" y2="195.5"/><line class="cls-1" x1="326.411" y1="358.542" x2="672.5" y2="195.5"/><line class="cls-1" x1="326.406" y1="358.529" x2="702.5" y2="195.5"/><line class="cls-1" x1="355.5" y1="359.5" x2="611.5" y2="196.5"/><line class="cls-1" x1="355.5" y1="359.5" x2="641.5" y2="196.5"/><line class="cls-1" x1="355.5" y1="359.5" x2="668.5" y2="196.5"/><line class="cls-1" x1="355.411" y1="359.542" x2="701.5" y2="196.5"/><line class="cls-1" x1="385.5" y1="359.5" x2="641.5" y2="196.5"/><line class="cls-1" x1="385.5" y1="359.5" x2="671.5" y2="196.5"/><line class="cls-1" x1="385.5" y1="359.5" x2="698.5" y2="196.5"/><line class="cls-1" x1="416.5" y1="358.5" x2="672.5" y2="195.5"/><line class="cls-1" x1="416.5" y1="358.5" x2="702.5" y2="195.5"/></svg>